<svg width="26" height="26" viewBox="0 0 26 26" fill="none" xmlns="http://www.w3.org/2000/svg">
<g id="Icon/More">
<path id="Vector (Stroke)" fill-rule="evenodd" clip-rule="evenodd" d="M5.41671 10.8334C6.61332 10.8334 7.58337 11.8034 7.58337 13C7.58337 14.1967 6.61332 15.1667 5.41671 15.1667C4.22009 15.1667 3.25004 14.1967 3.25004 13C3.25004 11.8034 4.22009 10.8334 5.41671 10.8334Z" fill="black"/>
<path id="Vector (Stroke)_2" fill-rule="evenodd" clip-rule="evenodd" d="M13 10.8334C14.1966 10.8334 15.1666 11.8034 15.1666 13C15.1666 14.1967 14.1966 15.1667 13 15.1667C11.8033 15.1667 10.8333 14.1967 10.8333 13C10.8333 11.8034 11.8033 10.8334 13 10.8334Z" fill="black"/>
<path id="Vector (Stroke)_3" fill-rule="evenodd" clip-rule="evenodd" d="M20.5833 10.8334C21.78 10.8334 22.75 11.8034 22.75 13C22.75 14.1967 21.78 15.1667 20.5833 15.1667C19.3867 15.1667 18.4167 14.1967 18.4167 13C18.4167 11.8034 19.3867 10.8334 20.5833 10.8334Z" fill="black"/>
</g>
</svg>
